<svg xmlns="http://www.w3.org/2000/svg" height="800" width="1200" viewBox="-25.19352 -5.6483 218.34384 33.8898"><path d="M5.4845 19.1785h3.9323c3.0355 0 4.5532-1.0005 4.5532-2.932 0-1.897-1.6213-2.9319-4.7946-2.9319h-3.691zm0-14.1425v5.4502H8.934c2.587 0 3.9322-.966 3.9322-2.725 0-1.794-1.3797-2.7252-3.9668-2.7252zM0 22.1106v-2.9321h2.3111V5.036H0V2.104h9.2444c4.2426 0 6.8297 1.9662 6.8297 5.3812 0 2.242-1.3106 3.6219-2.9663 4.2771 2.38.6556 4.0701 2.3458 4.0701 4.6567 0 3.6564-2.8284 5.6917-7.4508 5.6917H0m33.9427-10.4174c-.3449-1.1727-1.2073-1.8628-2.3455-1.8628-2.656 0-5.1741 1.9662-5.1741 5.5535v3.7945h5.1052v2.9321h-11.383v-2.9321h3.2422V10.348h-2.5524V7.416h5.5535v2.4834c.9314-1.7246 2.8286-2.9662 5.3465-2.9662 2.8287 0 4.5876 1.6213 5.1051 3.9323l-2.8975.8278m15.5231 4.4842c-.966-.345-2.4148-.6208-3.76-.6208-1.9317 0-3.7944.6208-3.7944 2.3801 0 1.3106 1.1726 1.9318 2.794 1.9318 2.2423 0 4.7604-1.2076 4.7604-3.277zm0-2.6214v-.8278c0-2.0699-1.656-2.9322-3.4495-2.9322-1.6901 0-3.139.6901-4.312 1.759l-2.0006-2.1727c1.38-1.2765 3.3461-2.4492 6.3126-2.4492 3.6908 0 6.554 1.9662 6.554 5.6913v6.554h2.1385v2.9321h-5.243v-1.5523c-.7934 1.2763-2.932 2.035-5.0363 2.035-3.0356 0-5.6571-1.552-5.6571-4.622 0-3.6218 3.5532-5.0016 6.7952-5.0016 1.5871 0 2.8977.3105 3.8982.5864m18.0065-9.0719h-3.415V0h3.415zm5.6571 14.6943v2.9321H58.297v-2.9321h6.14V10.348h-4.6912V7.416h7.7266v11.7625h5.6571m3.6572 0h2.2419V10.348h-2.1043V7.416h5.1054v1.897c.8967-1.4485 2.7594-2.3798 5.0359-2.3798 3.277 0 5.6225 2.0695 5.6225 5.4154v6.8299h2.2423v2.9321h-7.6232v-2.9321h2.3456v-6.0021c0-2.5524-1.5522-3.277-2.9665-3.277-2.3114 0-4.622 1.725-4.622 4.3808v4.8983h2.3452v2.9321h-7.6228v-2.9321m22.3181-8.8305h-3.8287V7.416h3.8287V2.1038h3.0353v5.312h7.1402v2.9321h-7.1402v6.1743c0 2.277 1.5868 3.208 3.4149 3.208 1.7247 0 3.1736-.9655 4.2428-2.0349l2.0352 2.1039c-1.3451 1.449-3.4149 2.794-6.278 2.794-3.6908 0-6.4502-2.035-6.4502-5.9672v-6.278m29.2858 1.3453c-.345-1.1727-1.2072-1.8628-2.3456-1.8628-2.6557 0-5.1742 1.9662-5.1742 5.5535v3.7945h5.1054v2.9321h-11.383v-2.9321h3.2423V10.348h-2.5523V7.416h5.5534v2.4834c.9314-1.7246 2.8286-2.9662 5.3467-2.9662 2.8286 0 4.5875 1.6213 5.105 3.9323l-2.8977.8278m8.176 1.5524h9.0371c-.4483-2.1042-2.311-3.5185-4.3804-3.5185-2.346 0-4.1395 1.4487-4.6567 3.5185zm12.2453 6.6229c-1.5177 1.5864-4.2083 2.7246-7.2094 2.7246-4.9325 0-8.382-3.3114-8.382-7.83s3.3461-7.83 8.0028-7.83c4.622 0 7.8645 3.553 7.8645 8.382v.5174h-12.6591c.5172 2.4492 2.5523 3.9322 5.2084 3.9322 2.2077 0 4.1046-.8967 5.1396-2.035l2.0352 2.1388m6.6234-6.6229h9.0375c-.4484-2.1042-2.311-3.5185-4.3808-3.5185-2.3453 0-4.1392 1.4487-4.6567 3.5185zm12.2456 6.6229c-1.518 1.5864-4.2083 2.7246-7.2093 2.7246-4.9326 0-8.382-3.3114-8.382-7.83s3.3457-7.83 8.0024-7.83c4.6224 0 7.8648 3.553 7.8648 8.382v.5174h-12.6594c.5175 2.4492 2.5527 3.9322 5.2087 3.9322 2.2077 0 4.1046-.8967 5.1396-2.035l2.0352 2.1388"/></svg>